Black Hand and the Shotgun Man (#1.7) aired 3/21/2011

The detective duo of Jarek Wysocki and Caleb Evers investigates an international drug dealer whose family is in jeopardy. FBI Division Chief Cuyler intervenes, complicating the high-profile case. While visiting grieving families with Alderman Gibbons, undercover cop Liam Hennessey becomes increasingly vulnerable when he feels the pain of victims. The family drama follows Jarek home when he visits his ex-wife, and wedding bells continue to ring for his fiancé.

General
Complete name                    : The Chacago Code S01E07 HDTV_JHW.mp4
Format                           : MPEG-4
Format profile                   : Base Media / Version 2
Codec ID                         : mp42
File size                        : 341 MiB
Duration                         : 43mn 0s
Overall bit rate                 : 1 109 Kbps
Encoded date                     : UTC 2011-03-21 03:10:38
Tagged date                      : UTC 2011-03-21 03:10:38
Writing library                  : AVS 

Video
ID                               : 1
Format                           : AVC
Format/Info                      : Advanced Video Codec
Format profile                   : Main@L5.1
Format settings, CABAC           : Yes
Format settings, ReFrames        : 2 frames
Codec ID                         : avc1
Codec ID/Info                    : Advanced Video Coding
Duration                         : 43mn 0s
Bit rate mode                    : Variable
Bit rate                         : 995 Kbps
Width                            : 720 pixels
Height                           : 400 pixels
Display aspect ratio             : 16:9
Frame rate mode                  : Constant
Frame rate                       : 29.970 fps
Color space                      : YUV
Chroma subsampling               : 4:2:0
Bit depth                        : 8 bits
Scan type                        : Progressive
Bits/(Pixel*Frame)               : 0.115
Stream size                      : 306 MiB (90%)
Language                         : English
Encoded date                     : UTC 2011-03-21 03:10:38
Tagged date                      : UTC 2011-03-21 03:10:38

Audio
ID                               : 2
Format                           : AAC
Format/Info                      : Advanced Audio Codec
Format profile                   : LC
Codec ID                         : 40
Duration                         : 43mn 0s
Bit rate mode                    : Constant
Bit rate                         : 105 Kbps
Nominal bit rate                 : 96.0 Kbps
Channel(s)                       : 2 channels
Channel positions                : Front: L R
Sampling rate                    : 48.0 KHz
Compression mode                 : Lossy
Stream size                      : 32.2 MiB (9%)
Language                         : English
Encoded date                     : UTC 2011-03-21 03:10:38
Tagged date                      : UTC 2011-03-21 03:10:38
 
http://img9.imageshack.us/img9/7122/vlcsnap2011032123h32m15.png
 
http://img831.imageshack.us/img831/3567/vlcsnap2011032123h32m33.png
 
http://img825.imageshack.us/img825/9033/vlcsnap2011032123h33m00.png
 
http://img4.imageshack.us/img4/5463/vlcsnap2011032123h33m25.png
 
http://img690.imageshack.us/img690/6852/vlcsnap2011032123h35m19.png